<svg width="206" height="207" viewBox="0 0 206 207" fill="none" xmlns="http://www.w3.org/2000/svg">
<path fill-rule="evenodd" clip-rule="evenodd" d="M195.195 149.002C196.023 147.344 196.809 145.659 197.549 143.951L62.0748 8.47703C60.3667 9.21739 58.6826 10.0027 57.024 10.8314L195.195 149.002ZM56.085 11.3066C54.4636 12.1376 52.8671 13.0104 51.2969 13.9235L192.103 154.729C193.016 153.159 193.888 151.563 194.72 149.941L56.085 11.3066ZM206 103.026C206 104.297 205.977 105.563 205.931 106.823L99.2029 0.094816C100.463 0.0491522 101.729 0.026123 103 0.026123C104.205 0.026123 105.406 0.0468254 106.601 0.0878938L205.938 99.4251C205.979 100.62 206 101.821 206 103.026ZM91.0059 0.717003C93.2647 0.45505 95.5457 0.266173 97.8466 0.152798L205.873 108.179C205.76 110.48 205.571 112.761 205.309 115.02L91.0059 0.717003ZM202.478 129.828C203.009 127.855 203.482 125.858 203.896 123.84L82.1858 2.13022C80.1677 2.54435 78.1712 3.01749 76.1981 3.54778L202.478 129.828ZM75.0888 3.85263C73.185 4.38733 71.3036 4.97537 69.4462 5.61504L200.411 136.58C201.051 134.723 201.639 132.841 202.173 130.937L75.0888 3.85263ZM188.144 161.004C187.147 162.466 186.113 163.902 185.043 165.308L40.7179 20.9829C42.1246 19.9134 43.5596 18.8792 45.0217 17.8817L188.144 161.004ZM35.8434 24.9277C37.1725 23.7838 38.5311 22.6732 39.918 21.5973L184.429 166.108C183.353 167.495 182.242 168.854 181.098 170.183L35.8434 24.9277ZM202.725 77.1591C201.765 73.4481 200.604 69.8182 199.253 66.2819L139.744 6.7734C136.208 5.42261 132.578 4.26111 128.867 3.30128L202.725 77.1591ZM126.985 2.83351C123.983 2.11753 120.93 1.53297 117.833 1.08623L204.94 88.1933C204.493 85.0958 203.909 82.0429 203.193 79.0411L126.985 2.83351ZM200.044 137.627C199.402 139.429 198.711 141.207 197.972 142.96L63.0657 8.05372C64.8193 7.31548 66.5976 6.6244 68.399 5.98205L200.044 137.627ZM205.877 97.9498C205.744 95.2139 205.505 92.506 205.163 89.8302L116.196 0.863536C113.52 0.52134 110.812 0.281814 108.076 0.149033L205.877 97.9498ZM205.155 116.28C204.879 118.429 204.537 120.556 204.131 122.661L83.3652 1.8954C85.4699 1.48916 87.5974 1.147 89.7457 0.871016L205.155 116.28ZM188.714 160.16C189.707 158.673 190.663 157.16 191.579 155.62L50.4065 14.4473C48.8666 15.3636 47.3526 16.3188 45.866 17.3118L188.714 160.16ZM190.581 48.7911C193.561 53.5919 196.156 58.6558 198.325 63.9398L142.086 7.70119C147.37 9.87012 152.434 12.4656 157.235 15.4449L190.581 48.7911ZM35.0868 25.5853L180.441 170.939C179.288 172.253 178.103 173.536 176.886 174.789L31.237 29.1405C32.4898 27.9234 33.7735 26.7379 35.0868 25.5853ZM172.407 179.13C173.697 177.953 174.957 176.744 176.185 175.503L30.523 29.8408C29.2826 31.0693 28.0732 32.3291 26.8962 33.619L172.407 179.13ZM171.664 179.801C170.36 180.969 169.025 182.104 167.662 183.204L22.8219 38.364C23.9226 37.0009 25.0573 35.6664 26.2248 34.3619L171.664 179.801ZM126.14 203.417C128.12 202.962 130.078 202.451 132.012 201.884L4.14233 74.0142C3.57556 75.9486 3.06403 77.9066 2.60955 79.8864L126.14 203.417ZM124.984 203.675C122.923 204.123 120.84 204.509 118.736 204.832L1.19443 87.2903C1.51702 85.186 1.9033 83.1026 2.35124 81.0423L124.984 203.675ZM110.818 205.734C113.068 205.565 115.296 205.324 117.503 205.013L1.01307 88.5232C0.702128 90.7297 0.461099 92.9586 0.292297 95.2077L110.818 205.734ZM4.46789 72.9255L133.101 201.558C134.97 200.988 136.818 200.365 138.641 199.693L6.33302 67.3854C5.66066 69.2084 5.03839 71.0557 4.46789 72.9255ZM6.71867 66.3568L139.669 199.307C141.44 198.633 143.187 197.911 144.909 197.143L8.88359 61.1169C8.11555 62.8391 7.39339 64.5862 6.71867 66.3568ZM9.32398 60.143L145.883 196.702C147.563 195.932 149.218 195.118 150.848 194.262L11.7645 55.1786C10.9081 56.8081 10.0941 58.4634 9.32398 60.143ZM12.2556 54.2555L151.771 193.77C153.365 192.912 154.935 192.012 156.478 191.073L14.9535 49.5481C14.0143 51.0911 13.1145 52.6607 12.2556 54.2555ZM15.4923 48.6728L157.353 190.534C158.868 189.591 160.356 188.61 161.817 187.592L18.4338 44.2093C17.416 45.6699 16.435 47.1582 15.4923 48.6728ZM19.0181 43.3794C20.041 41.9417 21.1 40.5314 22.1936 39.1499L166.876 183.833C165.495 184.926 164.084 185.985 162.647 187.008L19.0181 43.3794ZM109.495 205.825C107.347 205.958 105.182 206.026 103 206.026C102.763 206.026 102.526 206.025 102.289 206.024L0.00240088 103.737C0.000801147 103.5 0 103.263 0 103.026C0 100.845 0.0678203 98.6789 0.201467 96.5311L109.495 205.825ZM92.9925 205.546C95.5866 205.796 98.2088 205.95 100.856 206.004L0.02188 105.171C0.0759358 107.817 0.229828 110.44 0.479944 113.034L92.9925 205.546ZM91.4138 205.382C88.4498 205.05 85.5238 204.592 82.6413 204.014L2.0117 123.385C1.43378 120.502 0.976195 117.576 0.644395 114.612L91.4138 205.382ZM80.8516 203.639L2.38715 125.174C3.14723 128.643 4.08211 132.046 5.18209 135.374L70.6518 200.844C73.9798 201.944 77.383 202.879 80.8516 203.639ZM5.92012 137.527L68.4996 200.106C63.9642 198.494 59.5752 196.573 55.3578 194.369L11.6568 150.668C9.45266 146.451 7.53199 142.062 5.92012 137.527ZM13.3492 153.775C22.5516 169.997 36.0296 183.475 52.2513 192.677L13.3492 153.775ZM161.321 18.1163C171.726 25.2768 180.749 34.3003 187.91 44.7055L161.321 18.1163Z" fill="url(#paint0_linear_31_158)" fill-opacity="0.4"/>
<defs>
<linearGradient id="paint0_linear_31_158" x1="46.079" y1="21.7103" x2="156.126" y2="182.173" gradientUnits="userSpaceOnUse">
<stop offset="0.0329958" stop-color="#FF662C"/>
<stop offset="0.498089" stop-color="#097BFF"/>
<stop offset="0.914639" stop-color="#323232" stop-opacity="0.93"/>
</linearGradient>
</defs>
</svg>
